<svg width="74" height="40" viewBox="0 0 74 40" fill="none" xmlns="http://www.w3.org/2000/svg">
<path d="M0 31.04V8H4.352V26.976H14.272V31.04H0Z" fill="#092433"/>
<path d="M24.7685 31.52C23.0298 31.52 21.5045 31.1307 20.1925 30.352C18.8805 29.5733 17.8565 28.5013 17.1205 27.136C16.3952 25.76 16.0325 24.1813 16.0325 22.4C16.0325 20.5973 16.4058 19.0133 17.1525 17.648C17.8992 16.272 18.9285 15.2 20.2405 14.432C21.5525 13.664 23.0618 13.28 24.7685 13.28C26.5072 13.28 28.0325 13.6693 29.3445 14.448C30.6672 15.2267 31.6965 16.304 32.4325 17.68C33.1685 19.0453 33.5365 20.6187 33.5365 22.4C33.5365 24.192 33.1632 25.776 32.4165 27.152C31.6805 28.5173 30.6512 29.5893 29.3285 30.368C28.0165 31.136 26.4965 31.52 24.7685 31.52ZM24.7685 27.456C26.1658 27.456 27.2058 26.9867 27.8885 26.048C28.5818 25.0987 28.9285 23.8827 28.9285 22.4C28.9285 20.864 28.5765 19.6373 27.8725 18.72C27.1792 17.8027 26.1445 17.344 24.7685 17.344C23.8192 17.344 23.0405 17.5573 22.4325 17.984C21.8245 18.4107 21.3712 19.0027 21.0725 19.76C20.7845 20.5173 20.6405 21.3973 20.6405 22.4C20.6405 23.9467 20.9872 25.1787 21.6805 26.096C22.3845 27.0027 23.4138 27.456 24.7685 27.456Z" fill="#092433"/>
<path d="M44.447 39.2C43.4657 39.2 42.5323 39.04 41.647 38.72C40.7617 38.4107 39.967 37.9733 39.263 37.408C38.5697 36.8533 38.0043 36.2027 37.567 35.456L41.599 33.504C41.8763 34.016 42.271 34.4053 42.783 34.672C43.3057 34.9387 43.871 35.072 44.479 35.072C45.1297 35.072 45.743 34.96 46.319 34.736C46.895 34.5227 47.3537 34.1973 47.695 33.76C48.047 33.3333 48.2123 32.8 48.191 32.16V27.136H48.735V13.76H52.543V32.224C52.543 32.6507 52.5217 33.0507 52.479 33.424C52.447 33.808 52.383 34.1867 52.287 34.56C52.0097 35.616 51.4923 36.4853 50.735 37.168C49.9883 37.8507 49.071 38.3573 47.983 38.688C46.895 39.0293 45.7163 39.2 44.447 39.2ZM44.063 31.52C42.4737 31.52 41.0817 31.12 39.887 30.32C38.6923 29.52 37.759 28.432 37.087 27.056C36.4257 25.68 36.095 24.128 36.095 22.4C36.095 20.64 36.431 19.0773 37.103 17.712C37.7857 16.336 38.7403 15.2533 39.967 14.464C41.1937 13.6747 42.6337 13.28 44.287 13.28C45.9297 13.28 47.311 13.68 48.431 14.48C49.551 15.28 50.399 16.368 50.975 17.744C51.551 19.12 51.839 20.672 51.839 22.4C51.839 24.128 51.5457 25.68 50.959 27.056C50.383 28.432 49.519 29.52 48.367 30.32C47.215 31.12 45.7803 31.52 44.063 31.52ZM44.767 27.648C45.7377 27.648 46.511 27.4293 47.087 26.992C47.6737 26.5547 48.095 25.9413 48.351 25.152C48.607 24.3627 48.735 23.4453 48.735 22.4C48.735 21.3547 48.607 20.4373 48.351 19.648C48.095 18.8587 47.6843 18.2453 47.119 17.808C46.5643 17.3707 45.8337 17.152 44.927 17.152C43.9563 17.152 43.1563 17.392 42.527 17.872C41.9083 18.3413 41.4497 18.976 41.151 19.776C40.8523 20.5653 40.703 21.44 40.703 22.4C40.703 23.3707 40.847 24.256 41.135 25.056C41.423 25.8453 41.8657 26.4747 42.463 26.944C43.0603 27.4133 43.8283 27.648 44.767 27.648Z" fill="#092433"/>
<path d="M64.7998 31.52C63.0611 31.52 61.5358 31.1307 60.2238 30.352C58.9118 29.5733 57.8877 28.5013 57.1517 27.136C56.4264 25.76 56.0638 24.1813 56.0638 22.4C56.0638 20.5973 56.4371 19.0133 57.1838 17.648C57.9304 16.272 58.9598 15.2 60.2718 14.432C61.5838 13.664 63.0931 13.28 64.7998 13.28C66.5384 13.28 68.0638 13.6693 69.3757 14.448C70.6984 15.2267 71.7278 16.304 72.4638 17.68C73.1998 19.0453 73.5677 20.6187 73.5677 22.4C73.5677 24.192 73.1944 25.776 72.4478 27.152C71.7118 28.5173 70.6824 29.5893 69.3597 30.368C68.0477 31.136 66.5277 31.52 64.7998 31.52ZM64.7998 27.456C66.1971 27.456 67.2371 26.9867 67.9198 26.048C68.6131 25.0987 68.9597 23.8827 68.9597 22.4C68.9597 20.864 68.6077 19.6373 67.9037 18.72C67.2104 17.8027 66.1758 17.344 64.7998 17.344C63.8504 17.344 63.0717 17.5573 62.4637 17.984C61.8557 18.4107 61.4024 19.0027 61.1037 19.76C60.8158 20.5173 60.6717 21.3973 60.6717 22.4C60.6717 23.9467 61.0184 25.1787 61.7118 26.096C62.4157 27.0027 63.4451 27.456 64.7998 27.456Z" fill="#092433"/>
</svg>
